<svg width="40" height="42" viewBox="0 0 40 42" fill="none" xmlns="http://www.w3.org/2000/svg">
<path d="M20.6402 2.40662L31.5948 2.40662C34.5719 2.40662 36.9874 4.83107 36.9874 7.79924L36.9874 34.2008C36.9874 37.1778 34.563 39.5934 31.5948 39.5934L20.462 39.5934C19.7934 39.5934 19.2586 40.1282 19.2586 40.7967C19.2586 41.4652 19.7934 42 20.462 42L31.5948 42C35.9 42 39.394 38.497 39.394 34.2008L39.394 7.79924C39.394 3.49406 35.8911 -3.06239e-07 31.5948 -6.81831e-07L20.6402 -1.63951e-06C19.9717 -1.69795e-06 19.4369 0.5348 19.4369 1.20331C19.4369 1.87181 19.9806 2.40662 20.6402 2.40662Z" fill="black"/>
<path d="M0.816828 21.8467L8.46454 29.4944C8.93695 29.9669 9.69459 29.9669 10.167 29.4944C10.6394 29.022 10.6394 28.2644 10.167 27.792L4.56937 22.1944L28.9832 22.1944C29.6517 22.1944 30.1865 21.6596 30.1865 20.9911C30.1865 20.3225 29.6517 19.7877 28.9832 19.7877L4.56937 19.7877L10.167 14.1901C10.6394 13.7177 10.6394 12.9601 10.167 12.4877C9.93525 12.2559 9.62328 12.1311 9.32023 12.1311C9.01717 12.1311 8.7052 12.247 8.47345 12.4877L0.82574 20.1354C0.344416 20.6167 0.344418 21.3832 0.816828 21.8467Z" fill="black"/>
</svg>
