<svg width="36" height="34" viewBox="0 0 36 34" fill="none" xmlns="http://www.w3.org/2000/svg">
<path d="M35.3677 13.2046L30.8633 9.58465V3.79536C30.8633 3.14343 30.3253 2.61297 29.6642 2.61297H26.8299C26.1687 2.61297 25.6308 3.14343 25.6308 3.79536V5.37944L19.6119 0.542501C19.1766 0.192729 18.6027 0 17.9962 0C17.392 0 16.8209 0.191547 16.3879 0.539491L0.63227 13.2045C-0.0836044 13.7797 -0.0406542 14.2807 0.0486258 14.5281C0.137688 14.775 0.424496 15.1893 1.34411 15.1893H3.50155V31.8445C3.50155 33.0331 4.47959 34 5.68177 34H12.4949C13.687 34 14.6207 33.0531 14.6207 31.8445V25.0145C14.6207 24.4291 15.1663 23.8961 15.7653 23.8961H20.3437C20.9147 23.8961 21.3793 24.3978 21.3793 25.0145V31.8445C21.3793 33.0129 22.4027 34 23.6141 34H30.3182C31.5204 34 32.4985 33.033 32.4985 31.8445V15.1893H34.6559C35.5755 15.1893 35.8622 14.775 35.9514 14.5281C36.0407 14.2807 36.0836 13.7797 35.3677 13.2046Z" fill="#2F83EB"/>
</svg>
