<svg width="36" height="32" viewBox="0 0 36 32" fill="none" xmlns="http://www.w3.org/2000/svg">
<path d="M29.25 13.7143C31.732 13.7143 33.75 11.6643 33.75 9.14286C33.75 6.62143 31.732 4.57143 29.25 4.57143C26.768 4.57143 24.75 6.62143 24.75 9.14286C24.75 11.6643 26.768 13.7143 29.25 13.7143ZM31.5 16H27C25.7625 16 24.6445 16.5071 23.8289 17.3286C26.6625 18.9071 28.6734 21.7571 29.1094 25.1429H33.75C34.9945 25.1429 36 24.1214 36 22.8571V20.5714C36 18.05 33.982 16 31.5 16ZM13.5 16C17.8523 16 21.375 12.4214 21.375 8C21.375 3.57857 17.8523 0 13.5 0C9.14766 0 5.625 3.57857 5.625 8C5.625 12.4214 9.14766 16 13.5 16ZM18.9 18.2857H18.3164C16.8539 19 15.2297 19.4286 13.5 19.4286C11.7703 19.4286 10.1531 19 8.68359 18.2857H8.1C3.62812 18.2857 0 21.9714 0 26.5143V28.5714C0 30.4643 1.51172 32 3.375 32H23.625C25.4883 32 27 30.4643 27 28.5714V26.5143C27 21.9714 23.3719 18.2857 18.9 18.2857Z" fill="#2F83EB"/>
</svg>
