<svg width="31" height="31" viewBox="0 0 31 31" fill="none" xmlns="http://www.w3.org/2000/svg">
<path d="M15.5 0C12.4344 0 9.43763 0.909059 6.88867 2.61222C4.33971 4.31538 2.35303 6.73615 1.17987 9.56841C0.00671593 12.4007 -0.300236 15.5172 0.297835 18.5239C0.895906 21.5306 2.37214 24.2924 4.53985 26.4602C6.70756 28.6279 9.4694 30.1041 12.4761 30.7022C15.4828 31.3002 18.5993 30.9933 21.4316 29.8201C24.2638 28.647 26.6846 26.6603 28.3878 24.1113C30.0909 21.5624 31 18.5656 31 15.5C31 11.3891 29.367 7.44666 26.4602 4.53984C23.5533 1.63303 19.6109 0 15.5 0ZM13.5754 7.75C13.5754 7.23614 13.7795 6.74333 14.1429 6.37998C14.5063 6.01663 14.9991 5.8125 15.5129 5.8125C16.0268 5.8125 16.5196 6.01663 16.8829 6.37998C17.2463 6.74333 17.4504 7.23614 17.4504 7.75V16.6496C17.4504 16.904 17.4003 17.156 17.3029 17.391C17.2056 17.6261 17.0629 17.8397 16.8829 18.0196C16.703 18.1995 16.4894 18.3422 16.2544 18.4396C16.0193 18.537 15.7674 18.5871 15.5129 18.5871C15.2585 18.5871 15.0065 18.537 14.7715 18.4396C14.5364 18.3422 14.3228 18.1995 14.1429 18.0196C13.963 17.8397 13.8203 17.6261 13.7229 17.391C13.6255 17.156 13.5754 16.904 13.5754 16.6496V7.75ZM15.5 25.1875C15.0606 25.1875 14.6311 25.0572 14.2657 24.8131C13.9004 24.569 13.6156 24.222 13.4475 23.816C13.2793 23.4101 13.2353 22.9634 13.321 22.5324C13.4067 22.1014 13.6183 21.7056 13.9291 21.3949C14.2398 21.0842 14.6356 20.8726 15.0666 20.7869C15.4975 20.7011 15.9442 20.7451 16.3502 20.9133C16.7562 21.0814 17.1031 21.3662 17.3473 21.7315C17.5914 22.0969 17.7217 22.5264 17.7217 22.9658C17.7217 23.5551 17.4876 24.1201 17.071 24.5368C16.6543 24.9534 16.0892 25.1875 15.5 25.1875Z" fill="#2F83EB"/>
</svg>
