<svg width="39" height="38" viewBox="0 0 39 38" fill="none" xmlns="http://www.w3.org/2000/svg">
<g filter="url(#filter0_d_123_11)">
<path d="M25.86 8.64C25.0264 7.8023 24.0352 7.13778 22.9437 6.68469C21.8522 6.23161 20.6818 5.99891 19.5 6V15L13.14 21.36C14.8268 23.0468 17.1145 23.9944 19.5 23.9944C21.8855 23.9944 24.1732 23.0468 25.86 21.36C27.5468 19.6732 28.4944 17.3855 28.4944 15C28.4944 12.6145 27.5468 10.3268 25.86 8.64V8.64ZM19.5 0C16.5333 0 13.6332 0.879735 11.1665 2.52796C8.69972 4.17618 6.77713 6.51886 5.64181 9.25975C4.5065 12.0006 4.20945 15.0166 4.78823 17.9264C5.36701 20.8361 6.79562 23.5088 8.8934 25.6066C10.9912 27.7044 13.6639 29.133 16.5737 29.7118C19.4834 30.2906 22.4994 29.9935 25.2403 28.8582C27.9811 27.7229 30.3238 25.8003 31.972 23.3336C33.6203 20.8668 34.5 17.9667 34.5 15C34.4987 11.0222 32.9179 7.20762 30.1051 4.39486C27.2924 1.5821 23.4778 0.00132528 19.5 0V0ZM19.5 27C17.1266 27 14.8066 26.2962 12.8332 24.9776C10.8598 23.6591 9.3217 21.7849 8.41345 19.5922C7.5052 17.3995 7.26756 14.9867 7.73058 12.6589C8.19361 10.3311 9.3365 8.19295 11.0147 6.51472C12.693 4.83649 14.8312 3.6936 17.1589 3.23058C19.4867 2.76755 21.8995 3.00519 24.0922 3.91345C26.2849 4.8217 28.1591 6.35977 29.4776 8.33316C30.7962 10.3065 31.5 12.6266 31.5 15C31.5 18.1826 30.2357 21.2348 27.9853 23.4853C25.7349 25.7357 22.6826 27 19.5 27Z" fill="#313131"/>
</g>
<defs>
<filter id="filter0_d_123_11" x="0.5" y="0" width="38" height="38" filterUnits="userSpaceOnUse" color-interpolation-filters="sRGB">
<feFlood flood-opacity="0" result="BackgroundImageFix"/>
<feColorMatrix in="SourceAlpha" type="matrix" values="0 0 0 0 0 0 0 0 0 0 0 0 0 0 0 0 0 0 127 0" result="hardAlpha"/>
<feOffset dy="4"/>
<feGaussianBlur stdDeviation="2"/>
<feComposite in2="hardAlpha" operator="out"/>
<feColorMatrix type="matrix" values="0 0 0 0 0 0 0 0 0 0 0 0 0 0 0 0 0 0 0.25 0"/>
<feBlend mode="normal" in2="BackgroundImageFix" result="effect1_dropShadow_123_11"/>
<feBlend mode="normal" in="SourceGraphic" in2="effect1_dropShadow_123_11" result="shape"/>
</filter>
</defs>
</svg>
