<svg width="31" height="30" viewBox="0 0 31 30" fill="none" xmlns="http://www.w3.org/2000/svg">
<path d="M15.5 30C23.7843 30 30.5 23.2843 30.5 15C30.5 6.71573 23.7843 0 15.5 0C7.21573 0 0.5 6.71573 0.5 15C0.5 23.2843 7.21573 30 15.5 30Z" fill="#F0FFF3"/>
<path d="M15.5 24C20.4706 24 24.5 19.9706 24.5 15C24.5 10.0294 20.4706 6 15.5 6C10.5294 6 6.5 10.0294 6.5 15C6.5 19.9706 10.5294 24 15.5 24Z" fill="#D1FFDA"/>
<path d="M15.5 21C18.8137 21 21.5 18.3137 21.5 15C21.5 11.6863 18.8137 9 15.5 9C12.1863 9 9.5 11.6863 9.5 15C9.5 18.3137 12.1863 21 15.5 21Z" fill="#47FF6C"/>
</svg>
