<svg width="31" height="31" viewBox="0 0 31 31" fill="none" xmlns="http://www.w3.org/2000/svg">
<path d="M15.124 30.9449C23.4083 30.9449 30.124 24.2292 30.124 15.9449C30.124 7.66068 23.4083 0.944946 15.124 0.944946C6.83975 0.944946 0.124023 7.66068 0.124023 15.9449C0.124023 24.2292 6.83975 30.9449 15.124 30.9449Z" fill="#FFD5D5"/>
<path d="M15.124 24.9449C20.0946 24.9449 24.124 20.9155 24.124 15.9449C24.124 10.9744 20.0946 6.94495 15.124 6.94495C10.1535 6.94495 6.12402 10.9744 6.12402 15.9449C6.12402 20.9155 10.1535 24.9449 15.124 24.9449Z" fill="#FFA3A3"/>
<path d="M15.124 21.9449C18.4377 21.9449 21.124 19.2587 21.124 15.9449C21.124 12.6312 18.4377 9.94495 15.124 9.94495C11.8103 9.94495 9.12402 12.6312 9.12402 15.9449C9.12402 19.2587 11.8103 21.9449 15.124 21.9449Z" fill="#E35757"/>
</svg>
