<svg width="31" height="30" viewBox="0 0 31 30" fill="none" xmlns="http://www.w3.org/2000/svg">
<path d="M15.4999 29.985C23.7759 29.985 30.4849 23.276 30.4849 15C30.4849 6.72403 23.7759 0.0150146 15.4999 0.0150146C7.22391 0.0150146 0.514893 6.72403 0.514893 15C0.514893 23.276 7.22391 29.985 15.4999 29.985Z" stroke="#707070" stroke-width="0.03"/>
<path d="M15.4999 23.985C20.4622 23.985 24.4849 19.9623 24.4849 15C24.4849 10.0377 20.4622 6.01501 15.4999 6.01501C10.5376 6.01501 6.51489 10.0377 6.51489 15C6.51489 19.9623 10.5376 23.985 15.4999 23.985Z" fill="#FFF9B2"/>
<path d="M15.5 21C18.8137 21 21.5 18.3137 21.5 15C21.5 11.6863 18.8137 9 15.5 9C12.1863 9 9.5 11.6863 9.5 15C9.5 18.3137 12.1863 21 15.5 21Z" fill="#FFEE00"/>
</svg>
