<svg width="13" height="12" viewBox="0 0 13 12" fill="none" xmlns="http://www.w3.org/2000/svg">
<path d="M8.64803 2.56304L10.567 4.48204C10.606 4.52104 10.6279 4.57391 10.6279 4.62904C10.6279 4.68417 10.606 4.73704 10.567 4.77604L5.92103 9.42304L3.94603 9.64204C3.88463 9.64878 3.8225 9.6417 3.7642 9.62131C3.70589 9.60093 3.65289 9.56775 3.60907 9.52422C3.56525 9.48069 3.53173 9.4279 3.51096 9.36973C3.49019 9.31156 3.48269 9.24948 3.48903 9.18804L3.70803 7.21304L8.35503 2.56304C8.39399 2.52439 8.44665 2.5027 8.50153 2.5027C8.55641 2.5027 8.60907 2.52439 8.64803 2.56304ZM12.095 2.07604L11.057 1.03804C10.9011 0.882508 10.6898 0.795166 10.4695 0.795166C10.2493 0.795166 10.038 0.882508 9.88203 1.03804L9.12903 1.78804C9.09007 1.82704 9.06819 1.87991 9.06819 1.93504C9.06819 1.99017 9.09007 2.04304 9.12903 2.08204L11.048 4.00104C11.087 4.04 11.1399 4.06188 11.195 4.06188C11.2502 4.06188 11.303 4.04 11.342 4.00104L12.095 3.24804C12.2506 3.09208 12.3379 2.8808 12.3379 2.66054C12.3379 2.44028 12.2506 2.22901 12.095 2.07304V2.07604ZM8.25303 8.15904V10.325H1.44403V3.51604H6.33403C6.40165 3.51566 6.46651 3.48914 6.51503 3.44204L7.36503 2.58804C7.40007 2.5521 7.42372 2.50662 7.43302 2.4573C7.44232 2.40797 7.43686 2.357 7.41732 2.31077C7.39778 2.26454 7.36503 2.2251 7.32318 2.1974C7.28132 2.1697 7.23222 2.15496 7.18203 2.15504H1.10303C0.832327 2.15531 0.572785 2.26296 0.381368 2.45438C0.18995 2.6458 0.082296 2.90534 0.0820313 3.17604V10.666C0.0820311 10.9369 0.189569 11.1967 0.381014 11.3884C0.57246 11.58 0.832153 11.6878 1.10303 11.688H8.59303C8.86391 11.6878 9.1236 11.58 9.31505 11.3884C9.50649 11.1967 9.61403 10.9369 9.61403 10.666V7.30804C9.61309 7.25842 9.59774 7.21015 9.56987 7.16909C9.54199 7.12803 9.50278 7.09597 9.457 7.07679C9.41123 7.05761 9.36087 7.05215 9.31205 7.06107C9.26324 7.06999 9.21806 7.09291 9.18203 7.12704L8.33103 7.97804C8.28246 8.02592 8.25448 8.09086 8.25303 8.15904Z" fill="white"/>
</svg>
