<svg width="32" height="29" viewBox="0 0 32 29" fill="none" xmlns="http://www.w3.org/2000/svg">
<path opacity="0.3" d="M15.9249 0.000976562C19.3442 0.00143052 22.6663 1.13787 25.3694 3.23172C28.0725 5.32558 30.0034 8.25818 30.8586 11.5687C31.7138 14.8793 31.4449 18.3801 30.0941 21.5212C28.7433 24.6623 26.3871 27.2656 23.3959 28.922H8.45394C5.46273 27.2656 3.10662 24.6623 1.75582 21.5212C0.405016 18.3801 0.136084 14.8793 0.991278 11.5687C1.84647 8.25818 3.77732 5.32558 6.48043 3.23172C9.18355 1.13787 12.5057 0.00143052 15.9249 0.000976562ZM24.6589 24.159C25.8095 23.0147 26.7218 21.6536 27.3428 20.1544C27.9638 18.6552 28.2813 17.0477 28.2769 15.425H25.5649V13.497H28.1299C27.9195 12.1503 27.4851 10.8483 26.8449 9.64498H23.6369V7.71298H25.5739C25.2878 7.3559 24.9823 7.01472 24.6589 6.69098C23.2922 5.31894 21.6209 4.289 19.7809 3.68498V5.78498H17.8529V3.22298C16.5753 3.02378 15.2746 3.02378 13.9969 3.22298V5.78498H12.0689V3.68498C10.229 4.289 8.55762 5.31894 7.19094 6.69098C6.86755 7.01472 6.5621 7.3559 6.27594 7.71298H8.21294V9.64498H5.00494C4.36532 10.8497 3.932 12.1531 3.72294 13.501H6.28494V15.425H3.57394C3.56954 17.0477 3.88705 18.6552 4.50808 20.1544C5.12911 21.6536 6.04133 23.0147 7.19194 24.159C7.51236 24.479 7.84985 24.7814 8.20294 25.065H13.9979L15.0979 9.64098H16.7509L17.8509 25.065H23.6459C23.999 24.7814 24.3365 24.479 24.6569 24.159H24.6589Z" fill="#313131"/>
</svg>
