<svg width="36" height="34" viewBox="0 0 36 34" fill="none" xmlns="http://www.w3.org/2000/svg">
<path d="M34.7413 13.9841L34.7415 13.9842C34.8326 14.0574 34.8927 14.1187 34.9318 14.1651C34.8702 14.178 34.7806 14.1893 34.6559 14.1893H32.4985H31.4985V15.1893V31.8445C31.4985 32.47 30.9789 33 30.3182 33H23.6141C22.9207 33 22.3793 32.4269 22.3793 31.8445V25.0145C22.3793 23.9194 21.5381 22.8961 20.3437 22.8961H15.7653C14.636 22.8961 13.6207 23.8551 13.6207 25.0145V31.8445C13.6207 32.514 13.1216 33 12.4949 33H5.68177C5.02107 33 4.50155 32.4701 4.50155 31.8445V15.1893V14.1893H3.50155H1.34411C1.2194 14.1893 1.12973 14.178 1.06818 14.1651C1.10724 14.1186 1.16739 14.0573 1.25861 13.984L1.25879 13.9839L17.0143 1.319C17.0144 1.31896 17.0144 1.31893 17.0145 1.3189C17.2539 1.12656 17.5985 1 17.9962 1C18.3958 1 18.7434 1.12749 18.9857 1.32209L25.0043 6.15892L26.6308 7.46597V5.37944V3.79536C26.6308 3.70892 26.7077 3.61297 26.8299 3.61297H29.6642C29.7863 3.61297 29.8633 3.70892 29.8633 3.79536V9.58465V10.0639L30.2369 10.3641L34.7413 13.9841Z" stroke="black" stroke-width="2"/>
</svg>
