<svg width="31" height="30" viewBox="0 0 31 30" fill="none" xmlns="http://www.w3.org/2000/svg">
<path opacity="0.3" d="M21.86 8.64C21.0264 7.8023 20.0352 7.13778 18.9437 6.68469C17.8522 6.23161 16.6818 5.99891 15.5 6V15L9.14001 21.36C10.8268 23.0468 13.1145 23.9944 15.5 23.9944C17.8855 23.9944 20.1732 23.0468 21.86 21.36C23.5468 19.6732 24.4944 17.3855 24.4944 15C24.4944 12.6145 23.5468 10.3268 21.86 8.64ZM15.5 0C12.5333 0 9.63319 0.879735 7.16645 2.52796C4.69972 4.17618 2.77713 6.51886 1.64181 9.25975C0.506499 12.0006 0.209449 15.0166 0.788228 17.9264C1.36701 20.8361 2.79562 23.5088 4.8934 25.6066C6.99119 27.7044 9.66394 29.133 12.5737 29.7118C15.4834 30.2906 18.4994 29.9935 21.2403 28.8582C23.9811 27.7229 26.3238 25.8003 27.972 23.3336C29.6203 20.8668 30.5 17.9667 30.5 15C30.4987 11.0222 28.9179 7.20762 26.1051 4.39486C23.2924 1.5821 19.4778 0.00132528 15.5 0ZM15.5 27C13.1266 27 10.8066 26.2962 8.83316 24.9776C6.85977 23.6591 5.3217 21.7849 4.41345 19.5922C3.5052 17.3995 3.26756 14.9867 3.73058 12.6589C4.19361 10.3311 5.3365 8.19295 7.01473 6.51472C8.69296 4.83649 10.8312 3.6936 13.1589 3.23058C15.4867 2.76755 17.8995 3.00519 20.0922 3.91345C22.2849 4.8217 24.1591 6.35977 25.4776 8.33316C26.7962 10.3065 27.5 12.6266 27.5 15C27.5 18.1826 26.2357 21.2348 23.9853 23.4853C21.7348 25.7357 18.6826 27 15.5 27Z" fill="#313131"/>
</svg>
