<svg width="36" height="32" viewBox="0 0 36 32" fill="none" xmlns="http://www.w3.org/2000/svg">
<path d="M32.75 9.14286C32.75 11.1269 31.165 12.7143 29.25 12.7143C27.335 12.7143 25.75 11.1269 25.75 9.14286C25.75 7.15881 27.335 5.57143 29.25 5.57143C31.165 5.57143 32.75 7.15881 32.75 9.14286ZM29.9551 24.1429C29.3763 21.3444 27.7992 18.9355 25.608 17.2938C26.0352 17.1043 26.5055 17 27 17H31.5C33.415 17 35 18.5874 35 20.5714V22.8571C35 23.584 34.4275 24.1429 33.75 24.1429H29.9551ZM20.375 8C20.375 11.8841 17.2853 15 13.5 15C9.71473 15 6.625 11.8841 6.625 8C6.625 4.11595 9.71473 1 13.5 1C17.2853 1 20.375 4.11595 20.375 8ZM13.5 20.4286C15.3135 20.4286 17.0134 19.9988 18.5427 19.2857H18.9C22.8048 19.2857 26 22.5088 26 26.5143V28.5714C26 29.9269 24.9212 31 23.625 31H3.375C2.07879 31 1 29.9269 1 28.5714V26.5143C1 22.5088 4.1952 19.2857 8.1 19.2857H8.45813C9.99163 19.9981 11.685 20.4286 13.5 20.4286Z" stroke="#313131" stroke-width="2"/>
</svg>
