<svg width="27" height="29" viewBox="0 0 27 29" fill="none" xmlns="http://www.w3.org/2000/svg">
<path d="M1.87598 7.04688H25.376" stroke="#B0B0B0" stroke-width="3" stroke-linecap="round" stroke-linejoin="round"/>
<path d="M22.7621 7.04691V24.7419C22.751 25.4234 22.4697 26.0725 21.9801 26.5466C21.4904 27.0207 20.8325 27.2809 20.1511 27.2699H7.09806C6.4166 27.2809 5.75869 27.0207 5.26904 26.5466C4.77939 26.0725 4.49811 25.4234 4.48706 24.7419V7.04691M8.40306 7.04691V4.51991C8.41411 3.83845 8.69539 3.18929 9.18504 2.7152C9.67469 2.24112 10.3326 1.98095 11.0141 1.99191H16.2351C16.9165 1.98095 17.5744 2.24112 18.0641 2.7152C18.5537 3.18929 18.835 3.83845 18.8461 4.51991V7.04691" stroke="#B0B0B0" stroke-width="2.5" stroke-linecap="round" stroke-linejoin="round"/>
<path d="M11.0129 13.3669V20.9499" stroke="#B0B0B0" stroke-width="3" stroke-linecap="round" stroke-linejoin="round"/>
<path d="M16.2349 13.3669V20.9499" stroke="#B0B0B0" stroke-width="3" stroke-linecap="round" stroke-linejoin="round"/>
</svg>
