<svg width="22" height="29" viewBox="0 0 22 29" fill="none" xmlns="http://www.w3.org/2000/svg">
<path d="M19.7621 7.04691V24.7419C19.751 25.4234 19.4697 26.0725 18.9801 26.5466C18.4904 27.0207 17.8325 27.2809 17.1511 27.2699H4.09806C3.4166 27.2809 2.75869 27.0207 2.26904 26.5466C1.77939 26.0725 1.49811 25.4234 1.48706 24.7419V7.04691M5.40306 7.04691V4.51991C5.41411 3.83845 5.69539 3.18929 6.18504 2.7152C6.67469 2.24112 7.3326 1.98095 8.01406 1.99191H13.2351C13.9165 1.98095 14.5744 2.24112 15.0641 2.7152C15.5537 3.18929 15.835 3.83845 15.8461 4.51991V7.04691" stroke="#B0B0B0" stroke-width="2.5" stroke-linecap="round" stroke-linejoin="round"/>
</svg>
